<svg
  xmlns="http://www.w3.org/2000/svg"
  viewBox="85 0 120 30"
  fill="none"
>
  <!-- آیکن -->
  <g transform="translate(0,0)">
    <g clip-path="url(#clip0)">
      <path d="M89.0183 10.0533C87.402 10.3551 85.8393 10.8078 84.3438 11.3913C86.5737 16.2772 89.8667 20.5795 93.9243 24C95.1583 22.9604 96.3186 21.8404 97.4017 20.65C95.2254 18.876 93.2939 16.8104 91.6641 14.5167C92.4086 14.4395 93.1631 14.3993 93.9243 14.3993C96.4762 14.3993 98.9242 14.8419 101.198 15.6568C102.056 14.2953 102.827 12.8702 103.505 11.3947C100.534 10.2378 97.3045 9.60064 93.9243 9.60064C92.2443 9.59728 90.6078 9.75489 89.0183 10.0533Z" fill="#D32B4E"/>
      <path d="M93.923 0C91.2772 0 88.6984 0.285036 86.2136 0.82828C84.6208 1.17703 83.0682 1.62973 81.5625 2.17968C81.8207 3.79265 82.1829 5.36873 82.649 6.90122C84.1312 6.32779 85.6637 5.86167 87.2464 5.51963C89.3993 5.05016 91.6326 4.80201 93.923 4.80201C97.9001 4.80201 101.699 5.54646 105.197 6.90122C105.66 5.36873 106.025 3.79265 106.283 2.17968C102.43 0.767919 98.2656 0 93.923 0Z" fill="#D32B4E"/>
    </g>
  </g>

  <!-- متن -->
  <text
    x="115"
    y="20"
    font-family="Arial, Helvetica, sans-serif"
    font-size="20"
    font-weight="700"
    fill="#fff"
    letter-spacing="0.5"
  >
    Filmnet
  </text>

  <defs>
    <clipPath id="clip0">
      <rect width="110" height="30" fill="white"/>
    </clipPath>
  </defs>
</svg>
